<?xml version="1.0" standalone="no"?>
<!DOCTYPE svg PUBLIC "-//W3C//DTD SVG 20010904//EN"
 "http://www.w3.org/TR/2001/REC-SVG-20010904/DTD/svg10.dtd">
<svg version="1.0" xmlns="http://www.w3.org/2000/svg"
 width="1280.000000pt" height="1173.000000pt" viewBox="0 0 1280.000000 1173.000000"
 preserveAspectRatio="xMidYMid meet">
<metadata>
Created by potrace 1.15, written by Peter Selinger 2001-2017
</metadata>
<g transform="translate(0.000000,1173.000000) scale(0.100000,-0.100000)"
fill="#03a9f4" stroke="none">
<path d="M6795 11690 c-619 -157 -1034 -438 -1232 -835 -93 -186 -132 -329
-140 -510 -5 -122 5 -216 33 -312 5 -18 1 -23 -17 -27 -162 -34 -329 -74 -439
-106 -1030 -298 -1925 -907 -2596 -1766 -109 -139 -310 -442 -403 -606 -94
-166 -213 -414 -291 -607 -60 -150 -224 -632 -251 -739 l-13 -54 -91 9 c-49 4
-166 8 -260 8 -153 -1 -180 -4 -270 -28 -196 -54 -391 -170 -525 -313 -284
-303 -375 -752 -230 -1142 106 -283 338 -521 620 -635 204 -82 359 -96 690
-62 l65 7 34 -119 c181 -627 409 -1135 713 -1593 671 -1008 1672 -1739 2833
-2068 1410 -400 2928 -165 4155 643 800 527 1443 1286 1836 2168 127 284 281
704 327 887 l13 55 155 -3 c263 -6 431 18 599 85 150 61 269 142 385 264 514
542 354 1422 -319 1749 -56 27 -146 62 -201 77 -90 24 -117 27 -270 28 -93 0
-211 -4 -260 -8 l-91 -9 -13 54 c-27 107 -191 589 -251 739 -206 510 -493 985
-852 1408 -104 123 -364 387 -493 500 -647 570 -1409 960 -2242 1147 l-123 28
0 62 c0 131 -64 254 -170 326 -81 54 -123 63 -295 63 -125 0 -164 -4 -235 -23
-179 -49 -363 -145 -531 -278 -88 -70 -95 -74 -144 -74 -28 0 -123 -9 -211
-20 -220 -27 -198 -33 -217 53 -25 110 -29 184 -18 278 34 265 149 504 332
689 220 222 544 384 969 485 63 15 117 29 119 31 5 5 -21 124 -28 128 -3 2
-73 -14 -156 -34z m312 -1396 c32 -15 64 -41 83 -67 36 -49 64 -138 55 -174
-5 -21 -10 -24 -33 -20 -101 20 -418 50 -642 60 l-265 12 75 47 c202 127 391
182 585 172 69 -4 102 -11 142 -30z"/>
</g>
</svg>
