<?xml version="1.0" standalone="no"?>
<!DOCTYPE svg PUBLIC "-//W3C//DTD SVG 20010904//EN"
 "http://www.w3.org/TR/2001/REC-SVG-20010904/DTD/svg10.dtd">
<svg version="1.0" xmlns="http://www.w3.org/2000/svg"
 width="1280.000000pt" height="801.000000pt" viewBox="0 0 1280.000000 801.000000"
 preserveAspectRatio="xMidYMid meet">
<metadata>
Created by potrace 1.15, written by Peter Selinger 2001-2017
</metadata>
<g transform="translate(0.000000,801.000000) scale(0.100000,-0.100000)"
fill="#03a9f4" stroke="none">
<path d="M0 4005 l0 -4005 6400 0 6400 0 0 4005 0 4005 -6400 0 -6400 0 0
-4005z m12770 0 l0 -3975 -6370 0 -6370 0 0 3975 0 3975 6370 0 6370 0 0
-3975z"/>
<path d="M6182 7669 c-79 -25 -155 -87 -195 -158 -63 -111 -28 -250 78 -316
45 -28 56 -30 140 -30 84 0 94 2 127 27 41 32 53 68 44 133 -7 43 -23 59 -44
46 -9 -5 -9 -17 -1 -46 9 -33 8 -45 -6 -71 -22 -40 -52 -54 -121 -54 -170 0
-269 190 -167 319 70 87 188 137 307 129 81 -5 120 -22 170 -74 66 -68 81
-114 81 -249 0 -114 -2 -123 -32 -187 -58 -124 -157 -199 -291 -221 -37 -6
-69 -14 -72 -18 -3 -3 -52 -16 -109 -27 -57 -11 -107 -24 -110 -29 -3 -4 -50
-30 -104 -57 -235 -116 -427 -314 -566 -581 -22 -44 -50 -96 -61 -115 -11 -19
-20 -45 -20 -57 0 -29 -10 -53 -22 -53 -6 0 -26 13 -44 30 -63 55 -112 74
-189 75 -59 0 -78 -4 -116 -27 -90 -53 -144 -177 -120 -273 20 -78 60 -147
125 -210 61 -60 172 -127 232 -139 l32 -7 7 -92 c21 -274 95 -488 236 -677 70
-94 214 -232 308 -293 39 -26 71 -48 71 -50 0 -1 -62 -2 -138 -3 -123 0 -152
-4 -287 -38 -336 -83 -554 -202 -768 -421 -130 -133 -196 -214 -234 -290 -14
-27 -27 -51 -28 -53 -2 -2 -30 2 -62 8 -50 10 -65 9 -96 -4 -69 -28 -75 -103
-10 -135 18 -9 33 -18 33 -21 0 -3 -13 -13 -30 -22 -35 -20 -47 -58 -30 -98
14 -34 63 -54 106 -44 24 5 27 4 17 -7 -20 -20 -16 -76 7 -99 24 -24 58 -25
105 -6 l35 15 0 -35 c0 -38 29 -74 60 -74 41 0 80 78 80 159 0 20 7 34 19 40
23 13 27 6 36 -75 9 -84 23 -122 51 -140 31 -21 90 -11 105 18 19 35 6 127
-28 200 l-31 67 36 28 c20 15 81 69 135 120 133 125 195 172 306 228 52 26
124 65 159 86 36 22 66 38 67 37 2 -2 9 -19 17 -37 13 -32 12 -43 -14 -135
-25 -87 -109 -447 -177 -756 -29 -132 -68 -366 -80 -485 -6 -55 -18 -116 -27
-134 -15 -31 -15 -37 1 -98 14 -52 17 -88 12 -176 -4 -82 -2 -117 8 -136 12
-24 55 -189 55 -211 0 -5 -19 -3 -42 6 -23 8 -82 19 -132 25 -120 15 -239 -5
-341 -55 -69 -35 -95 -56 -185 -150 l-44 -47 -27 78 c-32 97 -50 131 -83 163
-34 31 -86 32 -118 3 -18 -17 -28 -19 -48 -11 -34 13 -70 -16 -88 -71 -10 -31
-17 -40 -25 -32 -12 12 -56 14 -73 3 -6 -4 -16 -16 -22 -28 -8 -16 -18 -20
-40 -16 -33 4 -59 -16 -69 -56 -3 -15 -17 -37 -30 -49 -32 -30 -30 -73 12
-296 53 -280 102 -415 185 -509 58 -66 164 -110 281 -116 102 -5 156 13 210
73 127 137 295 285 325 285 6 0 31 17 55 39 67 58 124 84 197 87 46 2 75 10
107 28 24 15 56 26 72 26 50 0 145 -29 263 -82 219 -96 284 -118 423 -138 73
-10 166 -29 207 -40 103 -29 265 -50 385 -50 179 0 411 43 559 102 28 11 60
22 71 23 40 6 251 34 290 38 23 3 88 31 150 66 92 50 127 63 213 81 188 38
237 40 317 12 171 -59 305 -152 492 -339 117 -117 150 -144 185 -154 55 -15
229 -4 268 16 59 30 176 157 207 225 38 80 69 179 84 268 7 38 23 83 37 105
26 40 28 56 22 206 -2 57 -6 68 -31 92 -16 15 -29 36 -29 48 0 25 -33 61 -56
61 -9 0 -33 13 -53 29 -20 15 -56 38 -81 51 -25 12 -55 31 -67 42 -16 15 -31
19 -55 16 -25 -4 -40 0 -61 18 -65 54 -122 14 -171 -119 -15 -42 -32 -77 -37
-77 -6 0 -22 8 -37 19 -218 151 -303 184 -472 184 -67 0 -128 -6 -169 -17 -35
-10 -65 -16 -66 -14 -2 2 11 48 30 103 90 269 105 512 50 808 -58 313 -186
641 -403 1027 -79 142 -87 159 -84 201 4 46 2 49 -73 133 l-76 86 95 0 c203 0
447 -83 643 -219 139 -97 127 -77 103 -162 -24 -88 -25 -120 -5 -159 40 -78
155 2 155 108 0 65 39 48 74 -32 57 -131 123 -188 191 -166 39 13 51 41 41 91
l-6 29 30 -15 c83 -43 145 18 90 88 -28 35 -25 38 15 21 70 -29 135 -13 135
34 0 38 -23 67 -77 99 l-46 27 26 9 c16 5 30 19 33 32 16 63 -20 88 -116 81
l-65 -5 -25 41 c-46 75 -209 229 -300 282 -97 57 -256 124 -384 161 -104 30
-293 65 -348 65 -21 0 -76 16 -122 35 -47 19 -91 35 -99 35 -8 0 45 60 118
133 150 150 246 285 314 442 80 182 118 401 100 579 -10 102 -12 100 102 160
75 40 204 168 240 238 30 57 31 138 2 193 -25 48 -76 101 -116 122 -52 26
-160 -4 -239 -68 -21 -16 -57 -36 -80 -45 -23 -8 -57 -26 -76 -40 -18 -15 -37
-22 -41 -18 -4 5 -29 37 -55 71 -26 34 -84 99 -129 144 -253 252 -575 426
-905 490 l-63 12 78 37 c87 41 172 112 197 164 56 119 -46 275 -161 244 -33
-9 -73 -50 -73 -75 0 -25 66 -83 93 -83 43 0 44 23 2 46 -26 15 -28 67 -2 72
44 9 68 -8 94 -64 35 -77 27 -114 -40 -179 -52 -50 -165 -113 -242 -134 -22
-6 -78 -11 -125 -10 -82 0 -84 1 -60 17 89 58 167 178 191 291 17 85 7 235
-21 299 -29 67 -101 133 -170 155 -70 23 -179 21 -258 -4z m563 -840 c340 -68
670 -248 905 -496 103 -108 163 -193 154 -216 -3 -9 -9 -17 -13 -16 -3 0 -28
35 -56 77 -67 103 -215 255 -320 330 -116 82 -280 164 -422 212 -148 49 -235
67 -393 82 -80 7 -134 17 -150 27 l-24 16 44 6 c61 9 156 1 275 -22z m-349 -4
l29 -20 -75 -7 c-41 -4 -97 -15 -124 -24 -27 -8 -59 -13 -72 -10 -34 9 -154
-11 -219 -35 -30 -11 -75 -35 -98 -53 -26 -20 -61 -36 -87 -40 l-45 -7 60 41
c173 118 362 181 531 177 51 -2 78 -8 100 -22z m59 -354 c37 -16 38 -19 18
-25 -23 -7 -83 19 -83 36 0 12 21 8 65 -11z m-1044 -212 c-17 -23 -31 -48 -31
-54 0 -7 -7 -15 -15 -19 -21 -8 -20 -7 27 76 26 45 44 67 46 56 2 -9 -11 -36
-27 -59z m2694 11 c-10 -11 -25 -20 -33 -20 -9 0 -6 7 9 20 31 25 47 26 24 0z
m-861 -146 c15 -14 26 -27 24 -29 -2 -2 -40 6 -86 17 l-82 21 0 39 0 39 58
-31 c32 -17 70 -42 86 -56z m1106 67 c0 -5 3 -18 6 -28 6 -16 5 -16 -9 2 -19
23 -21 35 -7 35 6 0 10 -4 10 -9z m-3266 -170 c46 -29 42 -37 -10 -15 -60 26
-134 22 -187 -10 -25 -14 -57 -41 -71 -58 -35 -45 -33 -26 4 26 58 86 176 111
264 57z m2845 -228 c11 -10 26 -23 35 -30 21 -18 31 -108 30 -263 -2 -108 -7
-154 -27 -230 -23 -90 -86 -264 -93 -257 -2 2 3 27 11 57 8 30 19 100 25 155
8 78 17 113 40 160 26 51 31 72 31 135 0 76 -18 152 -48 199 -15 24 -35 91
-27 91 2 0 13 -8 23 -17z m-1589 -93 c0 -5 -4 -10 -10 -10 -5 0 -10 5 -10 10
0 6 5 10 10 10 6 0 10 -4 10 -10z m-803 -212 c-3 -7 -5 -2 -5 12 0 14 2 19 5
13 2 -7 2 -19 0 -25z m-337 -46 c0 -5 -7 -17 -15 -28 -14 -18 -14 -18 -15 9 0
17 5 27 15 27 8 0 15 -4 15 -8z m1457 -165 c8 -13 -80 37 -142 81 -25 17 -45
36 -45 42 0 11 175 -104 187 -123z m-1376 -309 c25 -35 69 -115 98 -178 29
-63 60 -128 69 -145 14 -27 14 -29 0 -17 -22 17 -110 147 -137 200 -22 43 -83
202 -78 202 2 0 24 -28 48 -62z m2152 27 c20 -14 37 -28 37 -31 0 -7 -120 -62
-155 -70 l-30 -7 41 45 c23 25 45 55 49 67 8 27 12 26 58 -4z m-1428 -75 c33
-28 99 -79 148 -113 48 -34 82 -64 76 -66 -6 -2 -45 14 -87 34 -57 28 -97 58
-153 114 -42 42 -82 87 -89 100 l-12 24 28 -21 c16 -11 56 -44 89 -72z m435
-285 c30 -14 67 -33 81 -41 35 -19 279 -31 332 -16 32 9 38 8 47 -8 20 -37 13
-40 -103 -40 -160 0 -209 12 -342 81 -147 78 -156 92 -15 24z m785 -15 c-11
-5 -27 -9 -35 -9 -13 -1 -13 0 0 9 8 5 24 9 35 9 l20 0 -20 -9z m183 -212 c-3
-7 -15 -14 -29 -16 -24 -4 -24 -3 -4 12 24 19 38 20 33 4z m-163 -37 c-18 -16
-145 -70 -145 -61 0 13 17 22 85 47 71 25 72 26 60 14z m149 -30 c3 -4 -18
-11 -46 -14 -28 -4 -56 -11 -62 -17 -5 -5 -14 -10 -20 -10 -24 0 15 22 60 35
62 17 62 17 68 6z m596 -22 c131 -30 279 -82 381 -135 128 -66 134 -72 68 -67
-38 4 -68 15 -104 38 -77 50 -122 71 -220 100 -133 39 -239 77 -250 88 -7 6
-3 7 10 4 11 -3 63 -16 115 -28z m-773 -25 c-3 -3 -12 -4 -19 -1 -8 3 -5 6 6
6 11 1 17 -2 13 -5z m-1185 -35 c15 -8 17 -13 8 -19 -17 -11 -50 0 -50 16 0
17 14 18 42 3z m-46 -75 c-4 -14 -11 -62 -17 -107 -9 -72 -52 -198 -64 -186
-2 3 1 24 6 48 5 25 9 56 7 70 -3 30 52 201 65 201 5 0 6 -12 3 -26z m272 -44
c15 -1 15 -2 -1 -11 -51 -30 -70 -159 -43 -310 23 -130 44 -209 63 -239 l16
-25 -23 20 c-34 29 -77 128 -90 204 -9 54 -8 92 5 192 21 170 24 182 42 175 8
-3 22 -6 31 -6z m-678 -58 c0 -19 -23 -32 -37 -21 -20 17 -15 29 12 29 14 0
25 -4 25 -8z m70 -5 c0 -2 -10 -12 -21 -23 -22 -19 -22 -19 -10 4 10 18 31 31
31 19z m1820 -31 c0 -2 -9 -6 -20 -9 -11 -3 -20 -1 -20 4 0 5 9 9 20 9 11 0
20 -2 20 -4z m407 -27 c41 -26 38 -33 -8 -18 -19 6 -40 13 -47 15 -15 4 -7 24
10 24 6 0 26 -10 45 -21z m-731 -180 c3 -5 -1 -6 -9 -3 -13 5 -67 92 -67 109
0 6 50 -64 76 -106z m-300 -70 l-16 -34 5 55 c3 30 5 73 6 95 1 35 3 32 11
-21 8 -49 6 -68 -6 -95z m1388 87 c55 -11 60 -15 85 -59 14 -26 36 -54 49 -62
12 -9 22 -20 22 -26 0 -7 -188 120 -224 153 -13 10 -5 10 68 -6z m-2299 -73
c-10 -113 -13 -125 -35 -113 -29 15 -62 12 -100 -10 -58 -34 -93 -48 -135 -55
-38 -6 -36 -4 30 32 72 39 193 145 222 195 10 15 19 28 21 28 3 0 1 -35 -3
-77z m2987 22 c5 -31 -99 -29 -110 3 -3 10 9 12 52 10 31 -2 57 -7 58 -13z
m-4393 -56 c-32 -24 -36 -17 -7 12 13 13 25 20 27 15 2 -5 -7 -17 -20 -27z
m4369 -53 c26 -13 58 -36 71 -50 22 -23 22 -26 7 -32 -19 -7 -83 9 -128 32
-24 13 -26 16 -15 44 6 16 13 30 15 30 1 0 24 -11 50 -24z m-1998 -92 c0 -7
-17 -15 -37 -19 -21 -3 -48 -13 -60 -21 -31 -20 -56 -71 -51 -105 3 -16 2 -29
-1 -29 -12 0 -91 35 -91 40 0 3 12 13 28 22 43 26 120 108 155 166 l32 52 12
-47 c7 -27 13 -53 13 -59z m-660 -48 c51 -55 40 -65 -44 -41 -63 18 -61 14
-49 125 l6 63 23 -51 c12 -28 41 -71 64 -96z m1382 80 c9 -17 7 -18 -28 -11
-55 10 -57 14 -32 41 21 22 24 22 36 6 8 -9 18 -25 24 -36z m-2021 6 c-37 -14
-168 -38 -175 -31 -3 3 -3 14 0 24 5 18 14 20 105 20 90 0 97 -1 70 -13z
m2802 4 c24 -18 22 -72 -5 -126 -34 -68 -53 -60 -51 20 1 65 15 120 30 120 5
0 16 -7 26 -14z m440 -105 c22 -38 11 -44 -41 -21 l-41 19 15 31 c15 28 18 30
33 16 9 -8 24 -28 34 -45z m-192 -32 c13 -1 30 -1 36 0 17 2 48 -63 40 -83
-20 -52 -119 30 -157 130 -9 22 -6 21 24 -10 18 -20 44 -37 57 -37z m-986 45
c25 -25 9 -29 -21 -5 -18 14 -22 21 -11 21 9 0 23 -7 32 -16z m-2842 -97 c-94
-88 -141 -129 -188 -162 -31 -22 -27 -16 18 26 32 30 75 78 96 108 28 40 50
59 82 72 24 10 47 18 52 18 4 1 -23 -27 -60 -62z m2508 -10 c143 -60 164 -72
216 -120 50 -46 67 -75 77 -131 l7 -39 -82 74 c-45 41 -110 102 -145 137 -34
34 -69 62 -79 62 -18 0 -125 57 -125 67 0 3 6 3 13 0 6 -3 59 -26 118 -50z
m-3082 27 c30 -6 32 -9 29 -43 -4 -44 -29 -51 -94 -26 -56 21 -70 38 -49 59
17 17 60 20 114 10z m1116 -202 c-19 -157 -54 -336 -90 -467 -32 -113 -86
-267 -92 -261 -7 7 40 237 120 586 39 173 73 307 75 297 2 -9 -4 -79 -13 -155z
m485 138 c0 -5 -12 -10 -27 -10 -22 0 -25 2 -13 10 20 13 40 13 40 0z m-172
-45 c-35 -20 -54 -75 -39 -117 6 -17 11 -33 11 -34 0 -2 -14 -4 -31 -4 -31 0
-31 1 -25 38 3 20 6 51 6 69 0 42 23 63 68 63 l37 -1 -27 -14z m-1414 -108
c-8 -4 -35 -10 -62 -14 -36 -4 -51 -1 -60 10 -18 21 22 66 68 76 33 7 36 6 51
-28 13 -30 14 -37 3 -44z m118 -46 c14 -13 -33 -72 -69 -87 -31 -14 -38 -14
-50 -1 -21 21 -9 50 35 80 34 25 63 28 84 8z m280 -57 c31 -79 35 -116 13
-138 -34 -34 -56 2 -75 123 -10 61 -10 75 1 82 24 15 33 4 61 -67z m-199 -16
c-1 -49 -21 -103 -38 -103 -15 0 -18 68 -5 115 8 30 16 40 28 38 13 -3 17 -14
15 -50z m1101 -249 c-7 -11 -34 -12 -34 -1 0 14 11 21 26 15 8 -3 11 -9 8 -14z
m290 -139 c37 -14 34 -40 -4 -40 -25 0 -30 4 -30 25 0 28 0 28 34 15z m1456
-35 c36 -19 57 -35 48 -35 -16 0 -118 57 -118 66 0 7 4 5 70 -31z m768 -255
l8 -65 -46 -1 c-25 0 -85 -10 -135 -22 -187 -44 -213 -46 -887 -46 -380 -1
-640 3 -630 8 9 5 29 20 44 34 26 24 29 24 84 13 119 -23 193 -12 230 37 12
16 16 16 169 -17 142 -31 288 -51 376 -51 65 0 82 4 113 25 36 24 37 24 99 10
87 -21 156 -19 186 4 21 16 37 18 100 14 102 -7 170 24 254 115 25 26 23 28
35 -58z m-2887 -44 c10 -13 39 -29 65 -36 42 -12 51 -11 96 8 49 21 51 21 87
3 57 -29 172 -51 268 -51 48 0 111 -7 138 -14 49 -14 48 -14 -100 -17 -238 -5
-415 5 -520 27 l-70 16 4 44 c1 24 5 44 8 44 3 0 13 -11 24 -24z m2899 -76 c0
-5 -2 -10 -4 -10 -3 0 -8 5 -11 10 -3 6 -1 10 4 10 6 0 11 -4 11 -10z m-2916
-39 c3 -5 -1 -11 -9 -15 -9 -3 -15 0 -15 9 0 16 16 20 24 6z m2111 -20 l270
-6 -155 -13 c-88 -7 -293 -12 -475 -11 -399 2 -911 14 -760 18 61 2 169 7 240
10 164 9 530 10 880 2z m-1848 -192 c-14 -8 -22 -8 -30 0 -8 8 -3 11 19 11 25
-1 27 -2 11 -11z m2313 -33 c-54 -28 -150 -61 -208 -71 -41 -7 -42 -6 -42 22
l0 30 128 17 c70 10 129 20 131 22 2 2 11 4 20 4 9 -1 -4 -12 -29 -24z m330
-10 c0 -16 -15 -39 -42 -65 -55 -53 -71 -53 -24 0 20 22 42 51 48 65 14 30 18
30 18 0z m-27 -138 c-8 -43 -11 -45 -27 -23 -12 16 -11 21 8 37 11 9 22 17 23
18 1 0 0 -15 -4 -32z m-2538 -89 c44 -15 72 -28 63 -29 -22 0 -160 49 -173 63
-7 7 -4 7 10 2 11 -4 56 -20 100 -36z m2050 -58 c-15 -13 -121 -50 -210 -73
-118 -30 -484 -37 -730 -14 -418 39 -410 42 160 48 402 4 548 9 645 22 68 9
126 19 129 21 2 3 7 5 10 5 3 0 1 -4 -4 -9z m414 -88 c-22 -59 -94 -192 -144
-268 -111 -166 -157 -207 -360 -313 -44 -24 -67 -32 -51 -20 63 49 173 142
218 184 58 54 78 82 78 110 0 39 234 334 265 334 2 0 0 -12 -6 -27z m975 -42
c3 -5 -6 -14 -22 -19 -15 -5 -36 -13 -47 -18 -18 -6 -17 -4 4 19 24 27 55 35
65 18z m-569 -10 c29 -6 33 -9 15 -10 -14 -1 -49 -10 -78 -20 l-53 -18 -20 28
-20 29 58 -1 c32 0 76 -4 98 -8z m-4090 -65 c8 -12 28 -61 44 -108 16 -47 34
-95 40 -107 7 -13 8 -27 3 -37 -7 -12 -14 -1 -30 44 -34 91 -86 155 -144 174
-13 5 -2 42 18 63 18 18 46 7 69 -29z m3719 -26 c-33 -64 -145 -200 -164 -200
-5 0 12 30 37 67 25 37 58 93 74 124 25 51 43 67 87 78 2 1 -13 -30 -34 -69z
m-2944 36 c77 -20 118 -37 102 -43 -7 -3 -36 5 -65 18 -65 28 -154 30 -217 5
-30 -12 -67 -18 -110 -17 -77 2 -139 -17 -195 -61 l-40 -31 28 30 c33 35 114
77 189 97 70 19 239 20 308 2z m-923 -22 c2 -7 -10 -17 -27 -22 -33 -12 -35
-10 -19 19 11 21 40 22 46 3z m-147 -82 c0 -4 -9 -13 -20 -20 -22 -13 -27 -3
-8 16 14 14 28 16 28 4z m-94 -56 c3 -8 -2 -26 -12 -41 -18 -27 -18 -27 -26
-5 -8 23 5 60 23 60 5 0 12 -6 15 -14z m4336 -97 l16 -28 -39 -6 c-21 -4 -49
-15 -63 -26 -22 -17 -76 -27 -76 -13 0 3 20 29 45 57 25 29 45 55 45 58 0 17
58 -17 72 -42z m-4401 -7 c14 -16 15 -28 4 -83 -12 -70 -18 -63 -30 44 -8 60
-1 70 26 39z m1890 -347 c46 -27 133 -70 194 -95 361 -152 683 -171 1002 -59
98 35 253 110 337 164 63 40 71 42 56 16 -5 -11 -10 -31 -10 -44 0 -20 -12
-30 -73 -60 -134 -65 -239 -102 -395 -138 -129 -30 -420 -37 -566 -14 -212 33
-397 102 -557 208 -88 58 -229 174 -229 189 0 4 36 -20 79 -55 44 -34 117 -85
162 -112z m-183 53 c60 -53 160 -121 246 -167 33 -17 50 -31 39 -31 -38 0
-130 33 -257 93 -71 33 -161 70 -200 83 -39 13 -64 23 -55 24 9 0 45 15 80 34
52 28 67 32 79 22 8 -7 39 -33 68 -58z m-1399 41 c21 -7 31 -17 31 -31 0 -28
-22 -98 -30 -98 -7 0 -40 105 -40 128 0 15 0 15 39 1z m5155 -56 c-21 -89 -57
-200 -78 -241 -29 -56 -83 -132 -94 -132 -5 0 -3 35 3 79 8 57 20 92 42 127
17 27 38 72 48 99 26 73 94 131 79 68z m-947 -43 c35 -17 79 -51 104 -79 90
-99 107 -116 123 -129 9 -7 16 -18 16 -25 0 -6 -30 18 -67 54 -83 81 -131 118
-219 169 -55 32 -63 40 -43 40 14 0 53 -14 86 -30z m-3402 -10 c-3 -5 -11 -10
-16 -10 -6 0 -7 5 -4 10 3 6 11 10 16 10 6 0 7 -4 4 -10z m2374 -81 c-8 -5
-21 -9 -29 -9 -12 1 -11 4 4 15 10 8 23 12 29 8 5 -3 3 -9 -4 -14z m-2802
-203 c-10 -31 -31 -67 -49 -85 -37 -37 -48 -34 -21 6 17 24 42 85 59 142 4 11
7 12 16 3 9 -9 8 -25 -5 -66z m93 51 c0 -2 -12 -14 -27 -28 -14 -13 -24 -19
-21 -14 3 6 8 18 11 28 5 14 37 26 37 14z m4300 -177 c0 -5 -11 -10 -24 -10
-14 0 -28 5 -31 10 -4 6 7 10 24 10 17 0 31 -4 31 -10z"/>
<path d="M3002 1089 c3 -10 35 -16 124 -20 65 -3 145 -10 177 -14 47 -6 57 -5
57 8 0 21 -35 27 -209 34 -129 5 -153 4 -149 -8z"/>
<path d="M8050 742 c0 -5 -41 -14 -92 -20 -84 -10 -120 -23 -106 -37 3 -3 68
0 144 7 76 7 194 12 262 10 98 -3 122 0 122 10 0 11 -34 17 -137 26 -162 14
-193 15 -193 4z"/>
<path d="M3310 716 c0 -9 1 -16 3 -16 1 -1 58 -11 127 -24 75 -15 129 -20 135
-15 16 16 -7 25 -110 43 -55 10 -112 20 -127 23 -21 4 -28 2 -28 -11z"/>
<path d="M9870 696 c0 -16 5 -17 157 -35 92 -11 255 -50 393 -95 73 -24 90
-25 90 -5 0 12 -26 22 -189 69 -145 42 -261 65 -378 75 -62 6 -73 5 -73 -9z"/>
<path d="M9445 692 c-34 -8 -43 -39 -10 -34 96 14 213 12 335 -7 84 -12 138
-17 144 -11 15 15 5 19 -85 36 -92 17 -336 27 -384 16z"/>
<path d="M3112 649 c3 -10 31 -16 99 -20 52 -3 115 -9 140 -14 31 -4 49 -3 53
4 13 20 -47 33 -173 39 -103 4 -123 2 -119 -9z"/>
<path d="M5000 648 c0 -15 18 -17 234 -31 35 -2 46 18 14 27 -13 4 -74 10
-135 13 -96 5 -113 4 -113 -9z"/>
<path d="M7695 650 c-11 -17 17 -21 155 -18 96 2 135 7 138 16 5 15 -283 18
-293 2z"/>
<path d="M2125 631 c-3 -5 -1 -12 5 -16 5 -3 126 -26 269 -50 142 -25 324 -58
404 -75 79 -16 154 -30 166 -30 21 0 29 14 13 24 -21 13 -790 156 -839 156 -6
0 -14 -4 -18 -9z"/>
<path d="M2696 631 c-10 -15 1 -18 136 -31 64 -6 162 -22 218 -34 91 -21 129
-19 104 4 -38 33 -442 88 -458 61z"/>
<path d="M4927 557 c-72 -6 -107 -13 -104 -21 3 -7 39 -10 108 -9 103 1 159
13 159 33 0 11 -10 11 -163 -3z"/>
<path d="M9595 545 c-5 -2 -49 -7 -97 -10 -66 -5 -88 -10 -88 -21 0 -17 9 -17
188 -2 105 9 142 15 142 25 0 9 -18 13 -67 12 -38 0 -72 -2 -78 -4z"/>
<path d="M4773 500 c-65 -10 -83 -16 -83 -31 0 -8 20 -9 68 -5 37 3 102 9 145
12 56 5 77 10 77 20 0 16 -112 18 -207 4z"/>
<path d="M9320 405 c0 -13 23 -15 145 -15 122 0 145 2 145 15 0 13 -23 15
-145 15 -122 0 -145 -2 -145 -15z"/>
</g>
</svg>
