<?xml version="1.0" standalone="no"?>
<!DOCTYPE svg PUBLIC "-//W3C//DTD SVG 20010904//EN"
 "http://www.w3.org/TR/2001/REC-SVG-20010904/DTD/svg10.dtd">
<svg version="1.0" xmlns="http://www.w3.org/2000/svg"
 width="729.000000pt" height="1280.000000pt" viewBox="0 0 729.000000 1280.000000"
 preserveAspectRatio="xMidYMid meet">
<metadata>
Created by potrace 1.15, written by Peter Selinger 2001-2017
</metadata>
<g transform="translate(0.000000,1280.000000) scale(0.100000,-0.100000)"
fill="#03a9f4" stroke="none">
<path d="M1300 12785 c-315 -53 -612 -209 -850 -445 -422 -421 -547 -1000
-369 -1712 138 -554 471 -1039 909 -1327 197 -130 435 -221 538 -206 62 9 51
-7 -21 -29 -85 -27 -157 -100 -215 -216 -70 -144 -89 -256 -53 -316 36 -59 70
-67 331 -76 129 -5 245 -6 256 -3 23 5 64 72 64 104 0 10 -16 50 -36 87 -84
161 -194 387 -191 390 2 3 31 11 63 20 97 25 222 73 339 132 356 177 608 438
804 829 255 510 332 1242 186 1748 -135 464 -433 773 -899 932 -254 86 -635
126 -856 88z m1615 -2430 c-20 -65 -38 -115 -40 -113 -2 2 12 56 32 121 20 64
39 115 41 112 2 -2 -12 -56 -33 -120z"/>
<path d="M5253 9476 c-126 -24 -214 -59 -301 -118 l-44 -30 -111 56 c-126 64
-202 82 -307 71 -201 -21 -437 -156 -577 -330 -79 -98 -152 -230 -173 -312
-13 -50 -14 -51 -44 -46 -46 7 -83 -12 -105 -54 -12 -22 -20 -31 -21 -21 -1
44 -183 98 -326 98 -162 0 -283 -41 -373 -125 -142 -132 -163 -292 -87 -634
50 -226 66 -330 66 -437 0 -150 -37 -234 -132 -300 l-53 -36 75 7 c41 3 109
15 152 26 147 37 176 24 238 -104 89 -186 76 -373 -35 -496 -21 -22 -34 -41
-30 -41 4 0 43 19 86 41 109 57 214 168 247 263 13 36 26 66 29 66 3 0 23 -16
44 -35 40 -36 117 -80 126 -72 2 3 4 60 4 126 0 133 -12 213 -70 501 -56 279
-64 342 -59 493 6 154 26 231 87 323 54 81 91 121 122 128 26 6 27 4 39 -72 6
-42 25 -128 41 -191 16 -63 27 -116 25 -118 -2 -2 -23 -14 -47 -26 -59 -30
-83 -66 -83 -124 1 -61 31 -120 85 -167 54 -46 113 -57 188 -35 9 3 18 -8 24
-31 56 -203 146 -421 219 -529 42 -61 172 -196 225 -232 23 -16 85 -51 139
-79 53 -27 92 -50 87 -50 -6 0 -16 -15 -23 -32 l-12 -33 -9 33 c-12 40 -23 40
-125 -1 -185 -75 -375 -200 -518 -341 -114 -113 -166 -184 -255 -354 -152
-288 -356 -618 -474 -767 l-39 -50 38 40 c20 22 33 33 29 25 -20 -36 -84 -127
-98 -138 -8 -7 -68 -19 -133 -28 -66 -8 -227 -32 -359 -54 -367 -60 -681 -103
-850 -115 -77 -6 -93 -5 -104 9 -12 14 -11 19 5 30 15 12 16 16 5 29 -7 9 -27
17 -44 19 l-32 3 -13 125 c-7 69 -24 179 -38 245 -110 523 -159 916 -170 1360
-9 324 -4 369 95 845 64 306 84 513 62 640 -6 33 -9 5 -10 -103 -1 -179 -14
-270 -86 -598 -85 -392 -88 -423 -82 -784 9 -469 56 -843 167 -1325 29 -123
60 -317 60 -372 0 -24 -4 -28 -30 -28 -23 0 -35 -8 -55 -37 -14 -21 -32 -48
-40 -59 -26 -35 -30 -114 -10 -195 19 -78 49 -119 85 -119 31 0 97 37 145 81
l44 40 333 -11 c417 -15 900 -9 1013 13 250 49 416 140 584 320 30 31 57 57
61 57 4 0 -7 -64 -25 -142 -143 -620 -255 -902 -492 -1237 -157 -221 -429
-556 -537 -661 -25 -24 -46 -50 -46 -57 0 -7 -20 -35 -45 -63 -25 -29 -42 -56
-39 -64 3 -8 -8 -43 -25 -78 -50 -102 -38 -200 31 -249 62 -44 138 -33 211 31
l37 32 0 -32 c0 -101 82 -205 185 -236 83 -23 178 -15 254 22 l58 29 -5 -71
c-4 -58 -1 -77 17 -112 41 -81 145 -122 225 -88 52 22 53 21 60 -22 13 -83 95
-155 191 -169 25 -3 45 -7 45 -8 0 -9 -86 -217 -105 -255 -36 -71 -40 -111
-17 -163 11 -24 24 -47 29 -50 6 -4 3 -38 -8 -89 -24 -112 -46 -314 -59 -538
-16 -292 -14 -287 -148 -386 -113 -84 -137 -96 -307 -164 -70 -27 -149 -62
-175 -76 -54 -29 -125 -95 -146 -135 -13 -26 -13 -26 54 -52 154 -60 304 -75
426 -42 178 47 311 191 360 386 9 36 16 72 16 81 0 8 30 49 67 89 179 199 327
507 398 829 3 14 20 34 38 45 23 15 37 34 49 71 23 71 47 212 55 324 6 90 7
96 37 121 l31 27 18 -32 c54 -90 138 -140 237 -140 41 0 76 6 96 16 43 23 92
76 106 115 11 31 28 45 28 24 0 -20 111 -128 148 -145 48 -22 48 -21 63 -226
15 -210 16 -220 38 -220 16 0 18 -17 25 -222 8 -251 18 -403 43 -626 14 -126
14 -159 4 -188 -25 -69 39 -151 205 -260 210 -138 361 -176 425 -108 51 54 20
153 -77 248 -63 62 -120 93 -215 115 -36 9 -66 21 -67 26 -1 6 7 38 18 72 34
110 48 204 60 388 6 99 18 233 26 298 8 66 14 159 14 208 0 72 3 89 15 89 13
0 15 24 15 158 0 143 -4 193 -25 318 -7 39 -5 41 33 66 40 27 102 129 102 168
0 30 12 30 37 -1 78 -92 203 -89 295 7 36 38 88 129 88 154 0 7 18 -7 40 -32
48 -55 93 -78 152 -78 117 1 200 92 202 223 1 38 4 46 16 40 8 -4 39 -9 68
-11 43 -3 60 1 97 22 24 15 52 40 62 56 19 34 27 35 63 15 59 -34 174 -10 227
47 52 55 69 170 38 246 -17 39 -95 126 -130 144 -11 5 -1 -9 23 -32 41 -40 60
-70 24 -37 -10 9 -33 20 -51 23 -52 11 -165 156 -314 406 -78 131 -357 625
-357 632 0 2 33 63 74 137 76 139 122 215 232 384 94 146 169 300 189 391 15
67 16 86 5 148 -14 82 -47 178 -100 291 -63 137 -289 533 -383 673 -227 338
-505 653 -620 705 -46 20 -50 21 -41 6 4 -8 -1 -9 -17 -4 -34 10 -45 21 -60
57 -11 27 -11 32 2 36 7 3 57 27 110 54 117 60 242 158 319 251 54 66 226 368
284 500 21 47 29 57 50 57 14 0 38 12 53 26 15 15 19 20 8 13 -19 -13 -19 -13
-6 4 26 33 33 3 22 -96 -18 -159 -14 -355 10 -470 45 -226 149 -343 338 -383
59 -12 191 -20 191 -10 0 9 -28 83 -70 186 -27 63 -51 129 -55 147 l-6 32 53
-21 c52 -20 198 -31 213 -16 8 7 -76 238 -112 311 -13 27 -23 51 -21 52 2 2
61 -14 132 -37 102 -32 130 -37 137 -27 11 18 4 26 -28 34 -55 13 -101 53
-140 122 -38 68 -38 69 -37 178 0 122 20 218 94 450 64 203 65 356 4 477 -53
104 -126 159 -244 184 -74 15 -98 14 -211 -12 -63 -15 -66 -17 -63 -42 3 -21
2 -23 -4 -7 -4 11 -11 27 -17 36 -12 19 -54 43 -63 35 -3 -3 0 -6 7 -6 7 0 2
-14 -12 -32 -14 -18 -31 -50 -38 -71 l-13 -37 -56 108 c-30 59 -77 139 -105
177 -63 89 -183 209 -260 262 -129 87 -315 166 -466 198 -105 23 -288 28 -376
11z m1640 -633 c-7 -2 -19 -2 -25 0 -7 3 -2 5 12 5 14 0 19 -2 13 -5z m-3913
-137 c0 -2 -18 -15 -40 -30 -22 -14 -40 -24 -40 -22 0 5 71 56 77 56 2 0 3 -2
3 -4z m1400 -405 c0 -5 -9 -19 -21 -32 l-20 -24 17 33 c19 33 24 38 24 23z
m1535 -222 c20 -28 34 -53 32 -56 -6 -5 -77 86 -77 98 0 17 8 9 45 -42z m642
-46 c-3 -10 -5 -4 -5 12 0 17 2 24 5 18 2 -7 2 -21 0 -30z m-10 -70 c-3 -10
-5 -2 -5 17 0 19 2 27 5 18 2 -10 2 -26 0 -35z m-33 -5 c-9 -48 -27 -88 -40
-88 -20 0 -23 27 -6 46 10 11 23 31 29 47 17 36 24 34 17 -5z m23 -65 c-3 -10
-5 -2 -5 17 0 19 2 27 5 18 2 -10 2 -26 0 -35z m-2660 -5 c-3 -8 -6 -5 -6 6
-1 11 2 17 5 13 3 -3 4 -12 1 -19z m2549 -3 c-11 -8 -25 -15 -30 -15 -6 0 -2
7 8 15 11 8 25 15 30 15 6 0 2 -7 -8 -15z m-2496 -26 c0 -6 -4 -7 -10 -4 -5 3
-10 11 -10 16 0 6 5 7 10 4 6 -3 10 -11 10 -16z m2597 -41 c-2 -13 -4 -5 -4
17 -1 22 1 32 4 23 2 -10 2 -28 0 -40z m-2718 -55 c2 -2 -1 -3 -7 -3 -6 0 -24
12 -39 26 l-28 26 35 -23 c19 -12 37 -24 39 -26z m2708 -25 c-2 -13 -4 -5 -4
17 -1 22 1 32 4 23 2 -10 2 -28 0 -40z m-10 -90 c-2 -13 -4 -5 -4 17 -1 22 1
32 4 23 2 -10 2 -28 0 -40z m493 -488 l25 -8 -25 0 c-14 0 -34 3 -45 8 l-20 9
20 -1 c11 0 31 -4 45 -8z m-2214 -342 c41 -11 72 -23 70 -25 -5 -5 -146 33
-154 42 -9 9 7 6 84 -17z m1031 -170 c-3 -7 -5 -2 -5 12 0 14 2 19 5 13 2 -7
2 -19 0 -25z m-1707 -61 c0 -2 -10 -12 -22 -23 l-23 -19 19 23 c18 21 26 27
26 19z m1489 -251 c-29 -79 -34 -66 -6 19 12 37 23 61 25 53 2 -8 -7 -41 -19
-72z m435 -668 c31 -49 54 -88 51 -88 -2 0 -28 35 -56 78 -28 42 -56 82 -62
87 -19 19 37 -70 168 -265 75 -111 161 -254 199 -332 60 -119 69 -146 74 -206
7 -102 -12 -187 -85 -382 -78 -209 -82 -218 -93 -199 -16 28 -131 504 -146
603 -8 55 -22 130 -30 166 -16 68 -100 597 -102 639 -1 28 -5 33 82 -101z
m-3571 -855 c-7 -2 -19 -2 -25 0 -7 3 -2 5 12 5 14 0 19 -2 13 -5z m125 0
c-21 -2 -55 -2 -75 0 -21 2 -4 4 37 4 41 0 58 -2 38 -4z m112 -2147 c0 -2 -7
-7 -16 -10 -8 -3 -12 -2 -9 4 6 10 25 14 25 6z m4285 -56 l30 -8 -35 0 c-19 0
-44 3 -55 8 -18 8 -18 9 5 8 14 0 39 -4 55 -8z m-3405 -2072 c0 -16 -3 -19
-11 -11 -6 6 -8 16 -5 22 11 17 16 13 16 -11z m150 -38 c0 -5 -5 -10 -11 -10
-5 0 -7 5 -4 10 3 6 8 10 11 10 2 0 4 -4 4 -10z"/>
<path d="M1373 9055 c-52 -31 -109 -108 -214 -283 -45 -76 -100 -162 -122
-192 -23 -30 -33 -48 -22 -40 30 24 86 106 173 252 101 168 158 239 214 267
24 11 36 21 28 21 -8 0 -34 -11 -57 -25z"/>
<path d="M1542 8390 c0 -14 2 -19 5 -12 2 6 2 18 0 25 -3 6 -5 1 -5 -13z"/>
<path d="M1650 4673 c0 -70 -37 -217 -90 -358 -198 -533 -199 -542 -50 -900
32 -77 66 -167 76 -200 21 -73 22 -185 1 -242 -8 -24 -11 -40 -6 -37 16 10 39
108 39 169 0 78 -27 173 -96 342 -64 156 -94 264 -94 339 0 71 37 208 110 402
33 90 72 205 86 255 23 88 44 267 30 267 -3 0 -6 -17 -6 -37z"/>
</g>
</svg>
